<?xml version="1.0" standalone="no"?>
<!DOCTYPE svg PUBLIC "-//W3C//DTD SVG 20010904//EN"
 "http://www.w3.org/TR/2001/REC-SVG-20010904/DTD/svg10.dtd">
<svg version="1.0" xmlns="http://www.w3.org/2000/svg"
 width="500.000000pt" height="311.000000pt" viewBox="0 0 500.000000 311.000000"
 preserveAspectRatio="xMidYMid meet">

<g transform="translate(0.000000,311.000000) scale(0.100000,-0.100000)"
fill="#234579" stroke="none">
<path d="M2650 3100 c-96 -9 -300 -43 -375 -62 -41 -11 -51 -17 -53 -37 -4
-25 15 -44 36 -36 22 8 203 44 277 55 146 21 370 30 516 20 318 -21 578 -89
831 -216 88 -44 248 -141 248 -150 0 -2 -41 17 -92 42 -130 65 -296 129 -445
169 -508 140 -1047 126 -1573 -41 -72 -22 -80 -27 -80 -50 0 -37 22 -39 113
-11 460 143 914 168 1360 76 341 -70 710 -233 931 -410 36 -29 66 -54 66 -55
0 -1 -25 -8 -55 -14 -69 -14 -108 -47 -132 -108 -16 -42 -18 -83 -18 -422 l0
-375 25 -50 c20 -40 35 -55 75 -75 49 -25 53 -25 300 -25 234 0 253 1 296 21
73 34 93 76 98 207 l3 107 -151 0 -151 0 0 -24 c0 -41 -25 -56 -91 -56 -88 0
-99 9 -99 79 l0 58 163 6 c173 6 219 15 262 49 55 43 65 85 65 278 0 199 -8
242 -56 287 -44 41 -102 53 -254 53 l-119 0 -158 133 c-272 228 -363 290 -558
383 -183 86 -359 140 -575 175 -141 23 -487 33 -630 19z m2035 -1040 l0 -65
-87 -3 -88 -3 0 59 c0 33 5 63 12 70 9 9 38 12 88 10 l75 -3 0 -65z"/>
<path d="M4201 3024 c-50 -18 -115 -57 -128 -76 -4 -7 -14 -13 -22 -13 -8 0
-19 -7 -24 -17 -14 -21 3 -43 57 -70 61 -31 134 -28 226 9 41 17 92 33 114 36
34 5 55 19 56 39 0 16 -86 78 -128 92 -56 20 -94 19 -151 0z m127 -60 l37 -15
-73 -30 c-107 -42 -214 -37 -146 8 24 15 118 52 137 53 4 0 24 -7 45 -16z"/>
<path d="M2851 2886 c-9 -11 -11 -31 -6 -68 16 -116 57 -171 182 -245 52 -30
110 -70 128 -89 64 -64 91 -38 89 82 -4 125 -62 203 -201 270 -81 39 -116 41
-121 7 -3 -20 7 -28 71 -57 103 -46 153 -94 173 -163 9 -30 14 -56 12 -58 -6
-5 -182 105 -210 132 -32 31 -46 63 -62 140 -12 61 -31 78 -55 49z"/>
<path d="M2658 2865 c-61 -32 -95 -78 -120 -162 -11 -37 -31 -89 -45 -115 -14
-26 -23 -54 -20 -62 13 -32 123 -11 188 35 48 34 82 112 85 194 2 39 6 78 9
88 20 50 -24 60 -97 22z m18 -148 c-17 -57 -45 -100 -78 -118 -26 -14 -30 -8
-19 27 6 16 15 48 21 72 7 25 25 57 48 79 35 35 37 36 40 15 2 -12 -4 -46 -12
-75z"/>
<path d="M0 2113 c0 -394 4 -631 10 -655 15 -53 53 -94 108 -115 41 -16 79
-18 302 -18 252 0 256 0 305 25 37 18 57 37 75 70 l25 45 3 633 3 632 -161 0
-160 0 0 -560 c0 -543 -1 -560 -19 -570 -21 -11 -112 -13 -148 -4 l-23 6 -2
562 -3 561 -157 3 -158 3 0 -618z"/>
<path d="M2077 2538 c-49 -13 -94 -59 -107 -109 -30 -109 58 -210 168 -195 86
12 132 67 132 160 0 50 -4 60 -35 95 -20 21 -48 42 -63 45 -15 4 -34 8 -42 10
-8 2 -32 -1 -53 -6z"/>
<path d="M1130 2381 c-61 -19 -92 -43 -113 -89 -24 -53 -24 -50 -19 -634 l2
-338 140 0 140 0 0 404 c0 335 2 406 14 415 9 7 42 11 88 9 l73 -3 3 -412 2
-413 145 0 145 0 0 453 c0 280 -4 466 -10 489 -16 57 -54 96 -113 113 -39 11
-100 15 -261 14 -116 0 -222 -4 -236 -8z"/>
<path d="M2510 2370 c-62 -21 -93 -53 -110 -114 -7 -28 -10 -160 -8 -421 3
-360 4 -382 24 -420 14 -29 34 -47 70 -65 46 -23 61 -25 222 -28 l172 -4 0
-284 0 -284 149 0 149 0 7 243 c4 133 5 469 3 747 -3 500 -3 505 -25 547 -49
91 -94 103 -386 103 -181 -1 -220 -3 -267 -20z m358 -252 c17 -17 17 -509 0
-526 -18 -18 -143 -16 -162 4 -14 13 -16 51 -16 255 0 147 4 248 10 260 9 16
22 19 83 19 44 0 78 -5 85 -12z"/>
<path d="M3332 1923 c3 -464 3 -468 26 -510 15 -28 37 -50 65 -65 40 -22 52
-23 287 -23 235 0 247 1 287 23 28 15 50 37 65 65 23 42 23 46 26 510 l3 467
-146 0 -145 0 0 -409 c0 -463 9 -421 -90 -421 -99 0 -90 -42 -90 421 l0 409
-146 0 -145 0 3 -467z"/>
<path d="M1970 1801 l0 -481 150 0 150 0 0 481 0 481 -35 -31 c-19 -16 -53
-36 -75 -42 -51 -16 -106 0 -155 42 l-35 31 0 -481z"/>
<path d="M1732 1010 c4 -254 2 -250 92 -258 l56 -4 0 46 c0 39 -3 46 -20 46
-19 0 -20 7 -20 195 l0 195 -56 0 -56 0 4 -220z"/>
<path d="M3990 1006 c0 -186 3 -226 15 -236 21 -17 132 -24 181 -11 51 14 54
21 54 172 0 146 -7 158 -98 166 l-62 6 0 63 0 64 -45 0 -45 0 0 -224z m150
-81 l0 -85 -30 0 -30 0 0 78 c0 43 3 82 7 85 3 4 17 7 30 7 22 0 23 -3 23 -85z"/>
<path d="M1060 1180 c-19 -19 -20 -33 -20 -204 0 -232 0 -232 156 -224 95 4
104 14 104 110 l0 68 -50 0 -50 0 0 -46 c0 -44 -1 -45 -27 -42 l-28 3 0 130 0
130 28 3 c26 3 27 1 27 -37 l0 -41 50 0 50 0 0 65 c0 94 -13 105 -130 105 -77
0 -93 -3 -110 -20z"/>
<path d="M3360 975 l0 -225 110 0 110 0 0 45 0 45 -55 0 -55 0 0 180 0 180
-55 0 -55 0 0 -225z"/>
<path d="M1432 1093 c-13 -2 -27 -16 -33 -31 -15 -39 -7 -278 9 -294 8 -8 45
-14 95 -16 71 -3 86 -1 107 16 24 20 25 24 25 156 0 166 -1 168 -107 172 -40
1 -83 0 -96 -3z m106 -170 c-3 -83 -4 -88 -25 -91 -22 -3 -23 -1 -23 87 0 91
0 91 25 91 l26 0 -3 -87z"/>
<path d="M1995 1094 c-39 -11 -45 -32 -45 -169 0 -171 -1 -170 118 -170 125 0
122 -4 122 170 0 116 -3 145 -15 155 -16 13 -145 23 -180 14z m103 -171 c-3
-86 -3 -88 -28 -88 -25 0 -25 2 -28 88 l-3 87 31 0 31 0 -3 -87z"/>
<path d="M2287 1093 c-12 -11 -8 -280 4 -307 14 -30 34 -36 120 -36 51 0 72 5
90 19 23 19 24 23 24 173 l0 153 -45 0 -45 0 -3 -132 -3 -133 -24 0 -25 0 0
135 0 135 -43 0 c-24 0 -47 -3 -50 -7z"/>
<path d="M2642 1093 c-35 -7 -42 -41 -42 -199 l0 -144 45 0 45 0 0 130 0 130
25 0 c23 0 25 4 25 45 l0 45 -37 -1 c-21 -1 -48 -4 -61 -6z"/>
<path d="M3685 1093 c-35 -9 -45 -24 -45 -69 l0 -44 44 0 c30 0 46 5 50 15 3
8 17 15 31 15 18 0 25 -5 25 -20 0 -11 -3 -20 -7 -20 -5 -1 -31 -2 -59 -3 -75
-3 -84 -15 -84 -107 0 -101 5 -105 127 -105 124 0 123 -2 123 169 0 72 -4 137
-8 144 -17 26 -132 41 -197 25z m105 -233 c0 -15 -7 -20 -24 -20 -14 0 -28 5
-31 10 -10 16 4 30 31 30 17 0 24 -5 24 -20z"/>
<path d="M915 620 c-10 -11 -27 -20 -37 -20 -29 0 -58 -19 -58 -36 0 -16 19
-15 66 3 14 5 16 2 11 -18 -4 -13 -14 -103 -23 -199 -9 -96 -17 -175 -18 -175
-13 0 -122 -65 -130 -77 -18 -30 0 -29 60 3 59 30 59 30 73 10 18 -27 27 -26
35 3 7 29 48 39 118 30 30 -4 48 -3 48 3 0 22 -32 35 -95 41 l-65 5 5 36 c3
20 14 101 26 181 22 161 30 175 87 166 42 -6 82 11 82 36 0 14 -6 17 -22 14
-77 -16 -116 -16 -121 -1 -8 20 -20 19 -42 -5z"/>
<path d="M3704 601 c-81 -37 -162 -162 -207 -320 -20 -71 -25 -80 -49 -85 -36
-7 -36 -26 -2 -26 27 0 27 0 21 -64 -5 -47 -2 -68 9 -85 8 -11 19 -21 23 -21
4 0 11 35 14 78 7 87 14 112 31 112 34 0 162 75 209 122 163 163 128 369 -49
289z m106 -41 c22 -41 -27 -149 -104 -226 -49 -48 -152 -112 -163 -100 -8 7
26 116 54 171 38 73 72 115 122 147 53 33 76 35 91 8z"/>
<path d="M2229 540 c-9 -5 -22 -22 -28 -38 -11 -27 -15 -28 -148 -45 -139 -18
-153 -21 -153 -38 0 -12 86 -12 108 0 9 5 51 12 94 16 l76 7 -5 -83 c-4 -62
-11 -92 -26 -116 -28 -41 -41 -32 -33 24 11 84 -46 113 -106 52 -38 -38 -71
-34 -87 12 -11 31 -39 36 -33 6 3 -18 -32 -92 -47 -101 -5 -4 -13 17 -18 45
-11 72 -35 85 -72 41 l-28 -33 -16 24 c-22 34 -100 46 -128 21 -10 -9 -19 -24
-19 -33 0 -13 -54 -81 -64 -81 -1 0 -2 25 -2 55 1 39 -3 59 -14 65 -23 14 -27
13 -69 -25 -38 -35 -40 -35 -43 -13 -6 42 -42 35 -76 -14 -17 -25 -37 -50 -46
-57 -14 -12 -16 -8 -16 36 0 81 -32 95 -86 37 -33 -34 -34 -35 -34 -11 0 29
-21 50 -42 42 -17 -7 -38 -47 -38 -72 0 -14 2 -14 20 2 20 18 20 18 14 -28 -6
-45 -6 -47 17 -47 17 1 34 15 59 50 19 28 38 50 41 50 4 0 9 -18 12 -40 11
-88 52 -93 102 -15 20 30 38 55 40 55 3 0 2 -13 -1 -28 -4 -19 0 -32 11 -42
16 -13 22 -9 67 40 l49 55 -6 -52 c-6 -44 -4 -54 14 -72 28 -28 38 -27 71 9
27 29 29 30 39 11 14 -25 60 -41 89 -30 13 5 29 22 35 39 6 16 17 30 23 30 6
0 19 11 28 25 24 36 33 31 41 -21 9 -65 14 -74 39 -74 20 0 37 20 75 87 12 22
71 -7 71 -34 0 -24 32 -63 52 -63 6 0 19 7 29 16 16 14 19 14 42 0 28 -19 53
-13 68 16 11 20 11 20 25 -1 18 -25 56 -28 74 -6 12 14 16 13 36 -6 22 -21 24
-21 49 -5 23 15 28 15 47 1 31 -21 42 -19 77 11 21 18 33 38 37 65 5 30 14 43
35 54 15 8 30 15 33 15 3 0 -4 -25 -16 -55 -17 -44 -19 -58 -9 -68 10 -9 21
-3 50 31 20 23 40 42 45 42 5 0 6 -16 3 -35 -6 -39 15 -70 40 -61 8 3 16 6 18
6 6 0 43 64 50 88 10 34 -12 27 -37 -13 -13 -19 -26 -35 -29 -35 -3 0 -5 19
-5 42 1 38 -2 43 -22 46 -13 2 -30 -2 -38 -8 -11 -10 -14 -9 -14 8 0 29 -25
46 -57 37 -16 -4 -46 -7 -68 -6 -64 2 -85 -7 -100 -42 -7 -18 -25 -47 -39 -66
-22 -30 -26 -32 -26 -14 0 12 4 32 9 45 4 13 11 35 15 51 6 24 4 27 -18 27
-19 0 -26 -7 -31 -32 -7 -31 -61 -108 -76 -108 -4 0 -10 17 -14 38 -5 30 0 50
23 97 16 33 33 70 36 83 7 21 11 22 152 22 131 0 171 7 128 24 -9 3 -72 6
-141 6 -117 0 -125 1 -120 19 10 40 -26 63 -64 41z m-561 -305 c-23 -52 -68
-37 -68 23 0 19 7 43 16 53 16 17 18 17 40 -16 20 -29 22 -39 12 -60z m410 53
c-16 -64 -58 -105 -58 -57 0 23 15 55 38 82 24 28 31 20 20 -25z m412 38 c0
-3 -4 -8 -10 -11 -5 -3 -10 -1 -10 4 0 6 5 11 10 11 6 0 10 -2 10 -4z m-12
-47 c17 -6 -28 -74 -48 -74 -20 0 -25 40 -9 76 10 26 14 28 28 16 9 -8 22 -16
29 -18z"/>
<path d="M4363 528 c-11 -13 -22 -30 -25 -38 -4 -12 -40 -20 -144 -33 -142
-18 -174 -31 -174 -69 0 -25 40 -24 47 2 4 15 14 20 40 20 19 0 43 4 53 10 10
5 50 13 89 16 l71 7 0 -76 c0 -71 -2 -79 -30 -109 l-29 -33 -1 51 c0 85 -43
97 -94 26 l-26 -37 0 33 c0 30 -2 33 -27 30 -19 -2 -33 -12 -43 -34 -9 -17
-26 -44 -38 -60 -26 -35 -28 -18 -7 52 19 64 19 66 -7 62 -16 -2 -27 -15 -38
-45 -19 -53 -63 -106 -68 -81 -2 9 4 33 12 53 23 54 20 65 -13 65 -20 0 -30 6
-34 20 -3 11 -14 20 -24 20 -28 0 -33 -9 -21 -34 6 -16 7 -35 0 -59 -12 -43 2
-51 20 -12 17 39 28 30 28 -23 0 -26 5 -53 12 -60 17 -17 53 -15 68 3 10 13
14 12 30 -7 17 -21 18 -22 45 -4 15 10 36 38 46 62 11 24 22 44 23 44 2 0 0
-17 -5 -37 -6 -30 -5 -41 7 -53 14 -13 18 -12 37 14 12 17 36 45 52 64 l30 33
-3 -49 c-6 -77 37 -107 77 -55 23 28 23 28 40 -4 17 -34 64 -31 90 6 56 78 40
113 -18 40 -19 -22 -37 -37 -42 -32 -19 19 -11 80 20 143 17 36 31 71 31 78 0
9 37 12 151 12 134 0 150 2 139 15 -10 12 -40 15 -147 15 -92 0 -132 3 -128
11 4 5 4 21 1 35 -8 31 -45 32 -73 2z m14 -110 c-3 -8 -6 -5 -6 6 -1 11 2 17
5 13 3 -3 4 -12 1 -19z"/>
<path d="M2340 405 c-6 -8 -9 -19 -5 -25 8 -13 42 -13 50 0 7 11 -12 40 -25
40 -4 0 -13 -7 -20 -15z"/>
<path d="M2927 413 c-15 -14 -7 -43 12 -43 26 0 36 17 21 35 -14 16 -23 19
-33 8z"/>
<path d="M2891 327 c-9 -22 -15 -85 -12 -119 2 -25 36 -41 60 -29 10 6 28 33
40 61 12 27 23 50 25 50 2 0 1 -20 -1 -44 -7 -59 12 -71 46 -26 15 18 38 47
53 64 l28 31 -7 -48 c-4 -37 -2 -51 12 -67 23 -26 37 -25 63 3 25 27 56 97 43
97 -6 0 -23 -16 -38 -35 -15 -19 -31 -35 -35 -35 -5 0 -8 24 -8 54 0 48 -3 56
-22 62 -18 5 -30 -2 -60 -36 l-38 -43 0 32 c0 26 -4 31 -24 31 -19 0 -31 -12
-55 -54 -39 -71 -55 -80 -45 -29 4 21 11 48 15 61 13 35 11 42 -11 42 -12 0
-24 -9 -29 -23z"/>
</g>
</svg>
